<?xml version="1.0" encoding="utf-8"?>
<!-- Generator: Adobe Illustrator 16.0.0, SVG Export Plug-In . SVG Version: 6.00 Build 0)  -->
<!DOCTYPE svg PUBLIC "-//W3C//DTD SVG 1.1//EN" "http://www.w3.org/Graphics/SVG/1.1/DTD/svg11.dtd">
<svg version="1.1" id="Layer_1" xmlns="http://www.w3.org/2000/svg" xmlns:xlink="http://www.w3.org/1999/xlink" x="0px" y="0px"
	 width="128px" height="128px" viewBox="0 0 128 128" enable-background="new 0 0 128 128" xml:space="preserve">
<g>
	<g>
		<path fill="#282D33" d="M70.664,88.726V74.512h-39.59V53.487h39.59V39.273L97.899,64L70.664,88.726z M35.074,70.512h39.59v9.179
			L91.948,64L74.664,48.309v9.178h-39.59V70.512z"/>
	</g>
	<g>
		<g>
			<path fill="#282D33" d="M64,128C29.027,128,0.575,99.289,0.575,63.999h4C4.575,97.084,31.233,124,64,124
				c32.767,0,59.425-26.916,59.425-60.001C123.425,30.916,96.767,4,64,4V0c34.973,0,63.425,28.71,63.425,63.999
				C127.425,99.289,98.973,128,64,128z"/>
		</g>
		<g>
			<g>
				<path fill="#282D33" d="M4.575,63.999h-4c0-0.673,0.009-1.347,0.031-2.015l3.998,0.13C4.583,62.739,4.575,63.369,4.575,63.999z"
					/>
			</g>
			<g>
				<path fill="#282D33" d="M4.849,58.2l-3.982-0.378c0.134-1.413,0.318-2.841,0.545-4.244l3.948,0.641
					C5.147,55.535,4.975,56.874,4.849,58.2z M6.135,50.281l-3.896-0.902c0.32-1.384,0.692-2.775,1.104-4.135l3.828,1.161
					C6.784,47.68,6.436,48.984,6.135,50.281z M8.465,42.602l-3.741-1.415c0.502-1.328,1.057-2.658,1.649-3.954l3.639,1.661
					C9.456,40.11,8.936,41.357,8.465,42.602z M11.801,35.3l-3.519-1.902c0.675-1.249,1.402-2.493,2.161-3.697l3.385,2.132
					C13.116,32.962,12.434,34.128,11.801,35.3z M16.08,28.51l-3.234-2.354c0.836-1.149,1.723-2.285,2.633-3.375l3.07,2.563
					C17.695,26.367,16.864,27.432,16.08,28.51z M21.225,22.351l-2.892-2.764c0.984-1.03,2.014-2.038,3.059-2.995l2.7,2.951
					C23.113,20.44,22.148,21.385,21.225,22.351z M27.141,16.933l-2.498-3.124c1.11-0.888,2.265-1.749,3.432-2.559l2.281,3.285
					C29.263,15.294,28.182,16.101,27.141,16.933z M33.726,12.359L31.67,8.928c1.218-0.729,2.478-1.427,3.743-2.074l1.819,3.563
					C36.047,11.022,34.867,11.676,33.726,12.359z M40.861,8.718L39.29,5.04c1.309-0.559,2.651-1.079,3.99-1.546l1.316,3.777
					C43.343,7.708,42.086,8.195,40.861,8.718z M48.426,6.081l-1.056-3.858c1.371-0.375,2.773-0.708,4.168-0.988l0.789,3.922
					C51.022,5.418,49.709,5.73,48.426,6.081z M56.283,4.5l-0.521-3.966c1.37-0.18,2.766-0.315,4.149-0.404l0.255,3.992
					C58.872,4.205,57.565,4.332,56.283,4.5z"/>
			</g>
			<g>
				<path fill="#282D33" d="M62.112,4.029l-0.124-3.998C62.655,0.01,63.327,0,64,0v4C63.368,4,62.738,4.009,62.112,4.029z"/>
			</g>
		</g>
	</g>
</g>
</svg>
